<svg width="706" height="123" viewBox="0 0 706 123" fill="none" xmlns="http://www.w3.org/2000/svg">
<path d="M180.653 100.024C173.826 100.024 167.853 98.9573 162.733 96.824C157.613 94.6053 153.645 91.4907 150.829 87.48C148.098 83.384 146.733 78.648 146.733 73.272V70.456C146.733 70.0293 146.861 69.688 147.117 69.432C147.458 69.0907 147.842 68.92 148.269 68.92H162.861C163.288 68.92 163.629 69.0907 163.885 69.432C164.226 69.688 164.397 70.0293 164.397 70.456V72.376C164.397 75.7893 165.976 78.6907 169.133 81.08C172.29 83.384 176.557 84.536 181.933 84.536C186.456 84.536 189.826 83.5973 192.045 81.72C194.264 79.7573 195.373 77.368 195.373 74.552C195.373 72.504 194.69 70.7973 193.325 69.432C191.96 67.9813 190.082 66.744 187.693 65.72C185.389 64.6107 181.677 63.1173 176.557 61.24C170.84 59.2773 165.976 57.272 161.965 55.224C158.04 53.176 154.712 50.4027 151.981 46.904C149.336 43.32 148.013 38.9253 148.013 33.72C148.013 28.6 149.336 24.12 151.981 20.28C154.626 16.44 158.296 13.496 162.989 11.448C167.682 9.4 173.101 8.376 179.245 8.376C185.73 8.376 191.49 9.528 196.525 11.832C201.645 14.136 205.613 17.3787 208.429 21.56C211.33 25.656 212.781 30.4347 212.781 35.896V37.816C212.781 38.2427 212.61 38.6267 212.269 38.968C212.013 39.224 211.672 39.352 211.245 39.352H196.525C196.098 39.352 195.714 39.224 195.373 38.968C195.117 38.6267 194.989 38.2427 194.989 37.816V36.792C194.989 33.208 193.496 30.1787 190.509 27.704C187.608 25.144 183.597 23.864 178.477 23.864C174.466 23.864 171.309 24.7173 169.005 26.424C166.786 28.1307 165.677 30.4773 165.677 33.464C165.677 35.5973 166.317 37.3893 167.597 38.84C168.962 40.2907 170.925 41.6133 173.485 42.808C176.13 43.9173 180.184 45.4533 185.645 47.416C191.704 49.6347 196.44 51.5973 199.853 53.304C203.352 55.0107 206.466 57.5707 209.197 60.984C212.013 64.312 213.421 68.664 213.421 74.04C213.421 82.0613 210.477 88.4187 204.589 93.112C198.701 97.72 190.722 100.024 180.653 100.024ZM283.658 50.872C285.194 55.224 285.962 60.344 285.962 66.232C285.962 72.12 285.151 77.4533 283.53 82.232C281.567 87.6933 278.453 92.0453 274.186 95.288C270.005 98.4453 264.799 100.024 258.57 100.024C252.426 100.024 247.647 97.8907 244.234 93.624C244.063 93.368 243.893 93.2827 243.722 93.368C243.551 93.4533 243.466 93.624 243.466 93.88V121.272C243.466 121.699 243.295 122.04 242.954 122.296C242.698 122.637 242.357 122.808 241.93 122.808H226.954C226.527 122.808 226.143 122.637 225.802 122.296C225.546 122.04 225.418 121.699 225.418 121.272V34.744C225.418 34.3173 225.546 33.976 225.802 33.72C226.143 33.3787 226.527 33.208 226.954 33.208H241.93C242.357 33.208 242.698 33.3787 242.954 33.72C243.295 33.976 243.466 34.3173 243.466 34.744V38.968C243.466 39.224 243.551 39.3947 243.722 39.48C243.893 39.48 244.063 39.3947 244.234 39.224C247.818 34.5307 252.767 32.184 259.082 32.184C264.97 32.184 270.047 33.848 274.314 37.176C278.666 40.4187 281.781 44.984 283.658 50.872ZM264.074 79.544C266.207 76.216 267.274 71.6933 267.274 65.976C267.274 60.6 266.378 56.3333 264.586 53.176C262.623 49.5067 259.466 47.672 255.114 47.672C251.189 47.672 248.245 49.5067 246.282 53.176C244.49 56.248 243.594 60.5573 243.594 66.104C243.594 71.8213 244.533 76.2587 246.41 79.416C248.373 82.8293 251.274 84.536 255.114 84.536C258.954 84.536 261.941 82.872 264.074 79.544ZM330.424 32.312C333.496 32.312 335.928 32.9093 337.72 34.104C338.403 34.4453 338.659 35.0853 338.488 36.024L335.8 50.616C335.715 51.64 335.117 51.9387 334.008 51.512C332.728 51.0853 331.235 50.872 329.528 50.872C328.845 50.872 327.907 50.9573 326.712 51.128C323.64 51.384 321.037 52.536 318.904 54.584C316.771 56.5467 315.704 59.192 315.704 62.52V97.464C315.704 97.8907 315.533 98.2747 315.192 98.616C314.936 98.872 314.595 99 314.168 99H299.192C298.765 99 298.381 98.872 298.04 98.616C297.784 98.2747 297.656 97.8907 297.656 97.464V34.744C297.656 34.3173 297.784 33.976 298.04 33.72C298.381 33.3787 298.765 33.208 299.192 33.208H314.168C314.595 33.208 314.936 33.3787 315.192 33.72C315.533 33.976 315.704 34.3173 315.704 34.744V39.608C315.704 39.864 315.789 40.0347 315.96 40.12C316.131 40.2053 316.259 40.1627 316.344 39.992C319.843 34.872 324.536 32.312 330.424 32.312ZM356.384 25.784C353.483 25.784 351.051 24.8453 349.088 22.968C347.211 21.0053 346.272 18.5733 346.272 15.672C346.272 12.6853 347.211 10.2533 349.088 8.376C350.965 6.49866 353.397 5.56 356.384 5.56C359.371 5.56 361.803 6.49866 363.68 8.376C365.557 10.2533 366.496 12.6853 366.496 15.672C366.496 18.5733 365.515 21.0053 363.552 22.968C361.675 24.8453 359.285 25.784 356.384 25.784ZM348.704 99C348.277 99 347.893 98.872 347.552 98.616C347.296 98.2747 347.168 97.8907 347.168 97.464V34.616C347.168 34.1893 347.296 33.848 347.552 33.592C347.893 33.2507 348.277 33.08 348.704 33.08H363.68C364.107 33.08 364.448 33.2507 364.704 33.592C365.045 33.848 365.216 34.1893 365.216 34.616V97.464C365.216 97.8907 365.045 98.2747 364.704 98.616C364.448 98.872 364.107 99 363.68 99H348.704ZM413.585 32.184C420.412 32.184 425.916 34.2747 430.097 38.456C434.278 42.6373 436.369 48.312 436.369 55.48V97.464C436.369 97.8907 436.198 98.2747 435.857 98.616C435.601 98.872 435.26 99 434.833 99H419.857C419.43 99 419.046 98.872 418.705 98.616C418.449 98.2747 418.321 97.8907 418.321 97.464V59.192C418.321 55.7787 417.34 53.0053 415.377 50.872C413.5 48.7387 410.982 47.672 407.825 47.672C404.668 47.672 402.108 48.7387 400.145 50.872C398.268 53.0053 397.329 55.7787 397.329 59.192V97.464C397.329 97.8907 397.158 98.2747 396.817 98.616C396.561 98.872 396.22 99 395.793 99H380.817C380.39 99 380.006 98.872 379.665 98.616C379.409 98.2747 379.281 97.8907 379.281 97.464V34.744C379.281 34.3173 379.409 33.976 379.665 33.72C380.006 33.3787 380.39 33.208 380.817 33.208H395.793C396.22 33.208 396.561 33.3787 396.817 33.72C397.158 33.976 397.329 34.3173 397.329 34.744V39.224C397.329 39.48 397.414 39.6507 397.585 39.736C397.756 39.8213 397.884 39.7787 397.969 39.608C401.468 34.6587 406.673 32.184 413.585 32.184ZM487.041 46.136C487.041 46.5627 486.87 46.9467 486.529 47.288C486.273 47.544 485.932 47.672 485.505 47.672H473.217C472.79 47.672 472.577 47.8853 472.577 48.312V75.448C472.577 78.264 473.132 80.3547 474.241 81.72C475.436 83.0853 477.313 83.768 479.873 83.768H484.097C484.524 83.768 484.865 83.9387 485.121 84.28C485.462 84.536 485.633 84.8773 485.633 85.304V97.464C485.633 98.4027 485.121 98.9573 484.097 99.128C480.513 99.2987 477.953 99.384 476.417 99.384C469.334 99.384 464.044 98.232 460.545 95.928C457.046 93.5387 455.254 89.1013 455.169 82.616V48.312C455.169 47.8853 454.956 47.672 454.529 47.672H447.233C446.806 47.672 446.422 47.544 446.081 47.288C445.825 46.9467 445.697 46.5627 445.697 46.136V34.744C445.697 34.3173 445.825 33.976 446.081 33.72C446.422 33.3787 446.806 33.208 447.233 33.208H454.529C454.956 33.208 455.169 32.9947 455.169 32.568V17.336C455.169 16.9093 455.297 16.568 455.553 16.312C455.894 15.9707 456.278 15.8 456.705 15.8H471.041C471.468 15.8 471.809 15.9707 472.065 16.312C472.406 16.568 472.577 16.9093 472.577 17.336V32.568C472.577 32.9947 472.79 33.208 473.217 33.208H485.505C485.932 33.208 486.273 33.3787 486.529 33.72C486.87 33.976 487.041 34.3173 487.041 34.744V46.136Z" fill="#0B3954"/>
<path d="M500.594 99C500.167 99 499.783 98.872 499.442 98.616C499.186 98.2747 499.058 97.8907 499.058 97.464V10.936C499.058 10.5093 499.186 10.168 499.442 9.91199C499.783 9.57066 500.167 9.39999 500.594 9.39999H515.57C515.997 9.39999 516.338 9.57066 516.594 9.91199C516.935 10.168 517.106 10.5093 517.106 10.936V82.872C517.106 83.2987 517.319 83.512 517.746 83.512H559.602C560.029 83.512 560.37 83.6827 560.626 84.024C560.967 84.28 561.138 84.6213 561.138 85.048V97.464C561.138 97.8907 560.967 98.2747 560.626 98.616C560.37 98.872 560.029 99 559.602 99H500.594ZM580.884 25.784C577.983 25.784 575.551 24.8453 573.588 22.968C571.711 21.0053 570.772 18.5733 570.772 15.672C570.772 12.6853 571.711 10.2533 573.588 8.376C575.465 6.49866 577.897 5.56 580.884 5.56C583.871 5.56 586.303 6.49866 588.18 8.376C590.057 10.2533 590.996 12.6853 590.996 15.672C590.996 18.5733 590.015 21.0053 588.052 22.968C586.175 24.8453 583.785 25.784 580.884 25.784ZM573.204 99C572.777 99 572.393 98.872 572.052 98.616C571.796 98.2747 571.668 97.8907 571.668 97.464V34.616C571.668 34.1893 571.796 33.848 572.052 33.592C572.393 33.2507 572.777 33.08 573.204 33.08H588.18C588.607 33.08 588.948 33.2507 589.204 33.592C589.545 33.848 589.716 34.1893 589.716 34.616V97.464C589.716 97.8907 589.545 98.2747 589.204 98.616C588.948 98.872 588.607 99 588.18 99H573.204ZM630.021 99.896C624.304 99.896 619.312 99.0853 615.045 97.464C610.778 95.8427 607.45 93.5813 605.061 90.68C602.757 87.7787 601.605 84.4933 601.605 80.824V79.544C601.605 79.1173 601.733 78.776 601.989 78.52C602.33 78.1787 602.714 78.008 603.141 78.008H617.349C617.776 78.008 618.117 78.1787 618.373 78.52C618.714 78.776 618.885 79.1173 618.885 79.544V79.672C618.885 81.5493 619.909 83.1707 621.957 84.536C624.09 85.816 626.736 86.456 629.893 86.456C632.794 86.456 635.141 85.9013 636.933 84.792C638.725 83.5973 639.621 82.1467 639.621 80.44C639.621 78.904 638.853 77.752 637.317 76.984C635.781 76.216 633.264 75.4053 629.765 74.552C625.754 73.528 622.597 72.5467 620.293 71.608C614.832 69.7307 610.48 67.4267 607.237 64.696C603.994 61.9653 602.373 58.04 602.373 52.92C602.373 46.6053 604.805 41.6133 609.669 37.944C614.618 34.1893 621.146 32.312 629.253 32.312C634.714 32.312 639.493 33.208 643.589 35C647.685 36.7067 650.842 39.1387 653.061 42.296C655.365 45.4533 656.517 49.0373 656.517 53.048C656.517 53.4747 656.346 53.8587 656.005 54.2C655.749 54.456 655.408 54.584 654.981 54.584H641.285C640.858 54.584 640.474 54.456 640.133 54.2C639.877 53.8587 639.749 53.4747 639.749 53.048C639.749 51.1707 638.768 49.592 636.805 48.312C634.928 47.032 632.41 46.392 629.253 46.392C626.437 46.392 624.133 46.904 622.341 47.928C620.549 48.952 619.653 50.36 619.653 52.152C619.653 53.8587 620.506 55.1387 622.213 55.992C624.005 56.8453 626.949 57.7413 631.045 58.68C631.984 58.936 633.05 59.2347 634.245 59.576C635.44 59.832 636.72 60.1733 638.085 60.6C644.144 62.392 648.922 64.696 652.421 67.512C655.92 70.328 657.669 74.424 657.669 79.8C657.669 86.1147 655.152 91.064 650.117 94.648C645.168 98.1467 638.469 99.896 630.021 99.896ZM705.666 46.136C705.666 46.5627 705.495 46.9467 705.154 47.288C704.898 47.544 704.557 47.672 704.13 47.672H691.842C691.415 47.672 691.202 47.8853 691.202 48.312V75.448C691.202 78.264 691.757 80.3547 692.866 81.72C694.061 83.0853 695.938 83.768 698.498 83.768H702.722C703.149 83.768 703.49 83.9387 703.746 84.28C704.087 84.536 704.258 84.8773 704.258 85.304V97.464C704.258 98.4027 703.746 98.9573 702.722 99.128C699.138 99.2987 696.578 99.384 695.042 99.384C687.959 99.384 682.669 98.232 679.17 95.928C675.671 93.5387 673.879 89.1013 673.794 82.616V48.312C673.794 47.8853 673.581 47.672 673.154 47.672H665.858C665.431 47.672 665.047 47.544 664.706 47.288C664.45 46.9467 664.322 46.5627 664.322 46.136V34.744C664.322 34.3173 664.45 33.976 664.706 33.72C665.047 33.3787 665.431 33.208 665.858 33.208H673.154C673.581 33.208 673.794 32.9947 673.794 32.568V17.336C673.794 16.9093 673.922 16.568 674.178 16.312C674.519 15.9707 674.903 15.8 675.33 15.8H689.666C690.093 15.8 690.434 15.9707 690.69 16.312C691.031 16.568 691.202 16.9093 691.202 17.336V32.568C691.202 32.9947 691.415 33.208 691.842 33.208H704.13C704.557 33.208 704.898 33.3787 705.154 33.72C705.495 33.976 705.666 34.3173 705.666 34.744V46.136Z" fill="#E0FF4F"/>
<path d="M110.585 58.6742C110.597 70.6893 106.464 82.3408 98.8854 91.6639H65.9422C73.6769 89.8225 80.519 85.3224 85.2734 78.9496C90.0277 72.5768 92.3923 64.7363 91.954 56.7974C91.5157 48.8586 88.3025 41.326 82.8755 35.5153C77.4485 29.7046 70.1526 25.985 62.2622 25.0062V29.0672C62.262 29.6251 62.0944 30.1702 61.7811 30.6319C61.4677 31.0936 61.023 31.4506 60.5045 31.6568C59.9861 31.863 59.4176 31.9089 58.8728 31.7885C58.328 31.6681 57.8318 31.387 57.4485 30.9815L45.0239 17.8414C44.5317 17.3256 44.2571 16.64 44.2571 15.9271C44.2571 15.2141 44.5317 14.5285 45.0239 14.0127L57.4485 0.872628C57.8318 0.467167 58.328 0.186059 58.8728 0.0656678C59.4176 -0.0547231 59.9861 -0.00885663 60.5045 0.197334C61.023 0.403524 61.4677 0.76055 61.7811 1.22223C62.0944 1.6839 62.262 2.22898 62.2622 2.78696V6.33683C75.4157 7.40334 87.687 13.3778 96.6391 23.0736C105.591 32.7695 110.569 45.4776 110.585 58.6742Z" fill="#E0FF4F"/>
<path d="M24.1615 58.6742C24.1728 66.2994 26.7488 73.6992 31.4752 79.683C36.2016 85.6668 42.8034 89.8867 50.2187 91.6639H17.2755C11.3546 84.3559 7.50734 75.5907 6.13641 66.2857C4.76548 56.9807 5.92133 47.4783 9.48294 38.7733C13.0446 30.0682 18.8809 22.4808 26.381 16.8054C33.8811 11.13 42.7691 7.57523 52.1144 6.51338L45.024 14.0127C44.5318 14.5285 44.2572 15.2141 44.2572 15.9271C44.2572 16.64 44.5318 17.3256 45.024 17.8414L52.068 25.285C44.2445 26.7053 37.167 30.8246 32.0678 36.9257C26.9687 43.0267 24.1708 50.7229 24.1615 58.6742Z" fill="#E0FF4F"/>
<path d="M115.237 98.5759L103.479 86.1477C103.095 85.7425 102.599 85.4616 102.054 85.3415C101.51 85.2213 100.941 85.2673 100.423 85.4736C99.9048 85.6798 99.4603 86.0369 99.147 86.4985C98.8338 86.9601 98.6662 87.5051 98.6661 88.0629V91.6639H5.57572C4.09695 91.6639 2.67874 92.2513 1.63309 93.297C0.58744 94.3426 0 95.7608 0 97.2396V103.745C0 105.223 0.58744 106.642 1.63309 107.687C2.67874 108.733 4.09695 109.32 5.57572 109.32H98.6661V112.921C98.6662 113.479 98.8338 114.024 99.147 114.486C99.4603 114.947 99.9048 115.304 100.423 115.511C100.941 115.717 101.51 115.763 102.054 115.643C102.599 115.523 103.095 115.242 103.479 114.837L115.237 102.408C115.727 101.891 116 101.205 116 100.492C116 99.7793 115.727 99.0936 115.237 98.5759Z" fill="#E0FF4F"/>
<path d="M104.405 83.3347C103.53 82.7776 102.513 82.482 101.475 82.4825C99.9942 82.4818 98.5733 83.0683 97.5239 84.1135C96.4746 85.1586 95.8824 86.5772 95.8772 88.0583V88.876H73.4759C71.0848 90.1024 68.5556 91.0383 65.9421 91.6639H98.8853C100.985 89.0686 102.833 86.2797 104.405 83.3347Z" fill="#A6BD3D"/>
<path d="M17.2754 91.6639H50.2186C47.6052 91.0383 45.076 90.1024 42.6849 88.876H15.178C15.8499 89.8267 16.5413 90.7606 17.2754 91.6639Z" fill="#A6BD3D"/>
<path d="M45.0239 17.8414C44.5317 17.3256 44.2571 16.64 44.2571 15.9271C44.2571 15.2141 44.5317 14.5285 45.0239 14.0127L52.1144 6.51338C50.5876 6.68623 49.0821 6.93156 47.5971 7.23358L43.0092 12.0854C42.0188 13.116 41.4647 14.4895 41.4628 15.919C41.4609 17.3484 42.0113 18.7233 42.999 19.7566L48.9158 26.0145C49.9482 25.7245 50.9983 25.4773 52.0679 25.285L45.0239 17.8414Z" fill="#A6BD3D"/>
</svg>
