<svg width="801" height="267" viewBox="0 0 801 267" fill="none" xmlns="http://www.w3.org/2000/svg">
<rect width="801" height="267" fill="#F5F5F5"/>
<rect width="801" height="267" fill="#0B3954"/>
<path d="M222.653 172.024C215.826 172.024 209.853 170.957 204.733 168.824C199.613 166.605 195.645 163.491 192.829 159.48C190.098 155.384 188.733 150.648 188.733 145.272V142.456C188.733 142.029 188.861 141.688 189.117 141.432C189.458 141.091 189.842 140.92 190.269 140.92H204.861C205.288 140.92 205.629 141.091 205.885 141.432C206.226 141.688 206.397 142.029 206.397 142.456V144.376C206.397 147.789 207.976 150.691 211.133 153.08C214.29 155.384 218.557 156.536 223.933 156.536C228.456 156.536 231.826 155.597 234.045 153.72C236.264 151.757 237.373 149.368 237.373 146.552C237.373 144.504 236.69 142.797 235.325 141.432C233.96 139.981 232.082 138.744 229.693 137.72C227.389 136.611 223.677 135.117 218.557 133.24C212.84 131.277 207.976 129.272 203.965 127.224C200.04 125.176 196.712 122.403 193.981 118.904C191.336 115.32 190.013 110.925 190.013 105.72C190.013 100.6 191.336 96.12 193.981 92.28C196.626 88.44 200.296 85.496 204.989 83.448C209.682 81.4 215.101 80.376 221.245 80.376C227.73 80.376 233.49 81.528 238.525 83.832C243.645 86.136 247.613 89.3787 250.429 93.56C253.33 97.656 254.781 102.435 254.781 107.896V109.816C254.781 110.243 254.61 110.627 254.269 110.968C254.013 111.224 253.672 111.352 253.245 111.352H238.525C238.098 111.352 237.714 111.224 237.373 110.968C237.117 110.627 236.989 110.243 236.989 109.816V108.792C236.989 105.208 235.496 102.179 232.509 99.704C229.608 97.144 225.597 95.864 220.477 95.864C216.466 95.864 213.309 96.7173 211.005 98.424C208.786 100.131 207.677 102.477 207.677 105.464C207.677 107.597 208.317 109.389 209.597 110.84C210.962 112.291 212.925 113.613 215.485 114.808C218.13 115.917 222.184 117.453 227.645 119.416C233.704 121.635 238.44 123.597 241.853 125.304C245.352 127.011 248.466 129.571 251.197 132.984C254.013 136.312 255.421 140.664 255.421 146.04C255.421 154.061 252.477 160.419 246.589 165.112C240.701 169.72 232.722 172.024 222.653 172.024ZM325.658 122.872C327.194 127.224 327.962 132.344 327.962 138.232C327.962 144.12 327.151 149.453 325.53 154.232C323.567 159.693 320.453 164.045 316.186 167.288C312.005 170.445 306.799 172.024 300.57 172.024C294.426 172.024 289.647 169.891 286.234 165.624C286.063 165.368 285.893 165.283 285.722 165.368C285.551 165.453 285.466 165.624 285.466 165.88V193.272C285.466 193.699 285.295 194.04 284.954 194.296C284.698 194.637 284.357 194.808 283.93 194.808H268.954C268.527 194.808 268.143 194.637 267.802 194.296C267.546 194.04 267.418 193.699 267.418 193.272V106.744C267.418 106.317 267.546 105.976 267.802 105.72C268.143 105.379 268.527 105.208 268.954 105.208H283.93C284.357 105.208 284.698 105.379 284.954 105.72C285.295 105.976 285.466 106.317 285.466 106.744V110.968C285.466 111.224 285.551 111.395 285.722 111.48C285.893 111.48 286.063 111.395 286.234 111.224C289.818 106.531 294.767 104.184 301.082 104.184C306.97 104.184 312.047 105.848 316.314 109.176C320.666 112.419 323.781 116.984 325.658 122.872ZM306.074 151.544C308.207 148.216 309.274 143.693 309.274 137.976C309.274 132.6 308.378 128.333 306.586 125.176C304.623 121.507 301.466 119.672 297.114 119.672C293.189 119.672 290.245 121.507 288.282 125.176C286.49 128.248 285.594 132.557 285.594 138.104C285.594 143.821 286.533 148.259 288.41 151.416C290.373 154.829 293.274 156.536 297.114 156.536C300.954 156.536 303.941 154.872 306.074 151.544ZM372.424 104.312C375.496 104.312 377.928 104.909 379.72 106.104C380.403 106.445 380.659 107.085 380.488 108.024L377.8 122.616C377.715 123.64 377.117 123.939 376.008 123.512C374.728 123.085 373.235 122.872 371.528 122.872C370.845 122.872 369.907 122.957 368.712 123.128C365.64 123.384 363.037 124.536 360.904 126.584C358.771 128.547 357.704 131.192 357.704 134.52V169.464C357.704 169.891 357.533 170.275 357.192 170.616C356.936 170.872 356.595 171 356.168 171H341.192C340.765 171 340.381 170.872 340.04 170.616C339.784 170.275 339.656 169.891 339.656 169.464V106.744C339.656 106.317 339.784 105.976 340.04 105.72C340.381 105.379 340.765 105.208 341.192 105.208H356.168C356.595 105.208 356.936 105.379 357.192 105.72C357.533 105.976 357.704 106.317 357.704 106.744V111.608C357.704 111.864 357.789 112.035 357.96 112.12C358.131 112.205 358.259 112.163 358.344 111.992C361.843 106.872 366.536 104.312 372.424 104.312ZM398.384 97.784C395.483 97.784 393.051 96.8453 391.088 94.968C389.211 93.0053 388.272 90.5733 388.272 87.672C388.272 84.6853 389.211 82.2533 391.088 80.376C392.965 78.4987 395.397 77.56 398.384 77.56C401.371 77.56 403.803 78.4987 405.68 80.376C407.557 82.2533 408.496 84.6853 408.496 87.672C408.496 90.5733 407.515 93.0053 405.552 94.968C403.675 96.8453 401.285 97.784 398.384 97.784ZM390.704 171C390.277 171 389.893 170.872 389.552 170.616C389.296 170.275 389.168 169.891 389.168 169.464V106.616C389.168 106.189 389.296 105.848 389.552 105.592C389.893 105.251 390.277 105.08 390.704 105.08H405.68C406.107 105.08 406.448 105.251 406.704 105.592C407.045 105.848 407.216 106.189 407.216 106.616V169.464C407.216 169.891 407.045 170.275 406.704 170.616C406.448 170.872 406.107 171 405.68 171H390.704ZM455.585 104.184C462.412 104.184 467.916 106.275 472.097 110.456C476.278 114.637 478.369 120.312 478.369 127.48V169.464C478.369 169.891 478.198 170.275 477.857 170.616C477.601 170.872 477.26 171 476.833 171H461.857C461.43 171 461.046 170.872 460.705 170.616C460.449 170.275 460.321 169.891 460.321 169.464V131.192C460.321 127.779 459.34 125.005 457.377 122.872C455.5 120.739 452.982 119.672 449.825 119.672C446.668 119.672 444.108 120.739 442.145 122.872C440.268 125.005 439.329 127.779 439.329 131.192V169.464C439.329 169.891 439.158 170.275 438.817 170.616C438.561 170.872 438.22 171 437.793 171H422.817C422.39 171 422.006 170.872 421.665 170.616C421.409 170.275 421.281 169.891 421.281 169.464V106.744C421.281 106.317 421.409 105.976 421.665 105.72C422.006 105.379 422.39 105.208 422.817 105.208H437.793C438.22 105.208 438.561 105.379 438.817 105.72C439.158 105.976 439.329 106.317 439.329 106.744V111.224C439.329 111.48 439.414 111.651 439.585 111.736C439.756 111.821 439.884 111.779 439.969 111.608C443.468 106.659 448.673 104.184 455.585 104.184ZM529.041 118.136C529.041 118.563 528.87 118.947 528.529 119.288C528.273 119.544 527.932 119.672 527.505 119.672H515.217C514.79 119.672 514.577 119.885 514.577 120.312V147.448C514.577 150.264 515.132 152.355 516.241 153.72C517.436 155.085 519.313 155.768 521.873 155.768H526.097C526.524 155.768 526.865 155.939 527.121 156.28C527.462 156.536 527.633 156.877 527.633 157.304V169.464C527.633 170.403 527.121 170.957 526.097 171.128C522.513 171.299 519.953 171.384 518.417 171.384C511.334 171.384 506.044 170.232 502.545 167.928C499.046 165.539 497.254 161.101 497.169 154.616V120.312C497.169 119.885 496.956 119.672 496.529 119.672H489.233C488.806 119.672 488.422 119.544 488.081 119.288C487.825 118.947 487.697 118.563 487.697 118.136V106.744C487.697 106.317 487.825 105.976 488.081 105.72C488.422 105.379 488.806 105.208 489.233 105.208H496.529C496.956 105.208 497.169 104.995 497.169 104.568V89.336C497.169 88.9093 497.297 88.568 497.553 88.312C497.894 87.9707 498.278 87.8 498.705 87.8H513.041C513.468 87.8 513.809 87.9707 514.065 88.312C514.406 88.568 514.577 88.9093 514.577 89.336V104.568C514.577 104.995 514.79 105.208 515.217 105.208H527.505C527.932 105.208 528.273 105.379 528.529 105.72C528.87 105.976 529.041 106.317 529.041 106.744V118.136Z" fill="#BFD7EA"/>
<path d="M542.594 171C542.167 171 541.783 170.872 541.442 170.616C541.186 170.275 541.058 169.891 541.058 169.464V82.936C541.058 82.5093 541.186 82.168 541.442 81.912C541.783 81.5707 542.167 81.4 542.594 81.4H557.57C557.997 81.4 558.338 81.5707 558.594 81.912C558.935 82.168 559.106 82.5093 559.106 82.936V154.872C559.106 155.299 559.319 155.512 559.746 155.512H601.602C602.029 155.512 602.37 155.683 602.626 156.024C602.967 156.28 603.138 156.621 603.138 157.048V169.464C603.138 169.891 602.967 170.275 602.626 170.616C602.37 170.872 602.029 171 601.602 171H542.594ZM622.884 97.784C619.983 97.784 617.551 96.8453 615.588 94.968C613.711 93.0053 612.772 90.5733 612.772 87.672C612.772 84.6853 613.711 82.2533 615.588 80.376C617.465 78.4987 619.897 77.56 622.884 77.56C625.871 77.56 628.303 78.4987 630.18 80.376C632.057 82.2533 632.996 84.6853 632.996 87.672C632.996 90.5733 632.015 93.0053 630.052 94.968C628.175 96.8453 625.785 97.784 622.884 97.784ZM615.204 171C614.777 171 614.393 170.872 614.052 170.616C613.796 170.275 613.668 169.891 613.668 169.464V106.616C613.668 106.189 613.796 105.848 614.052 105.592C614.393 105.251 614.777 105.08 615.204 105.08H630.18C630.607 105.08 630.948 105.251 631.204 105.592C631.545 105.848 631.716 106.189 631.716 106.616V169.464C631.716 169.891 631.545 170.275 631.204 170.616C630.948 170.872 630.607 171 630.18 171H615.204ZM672.021 171.896C666.304 171.896 661.312 171.085 657.045 169.464C652.778 167.843 649.45 165.581 647.061 162.68C644.757 159.779 643.605 156.493 643.605 152.824V151.544C643.605 151.117 643.733 150.776 643.989 150.52C644.33 150.179 644.714 150.008 645.141 150.008H659.349C659.776 150.008 660.117 150.179 660.373 150.52C660.714 150.776 660.885 151.117 660.885 151.544V151.672C660.885 153.549 661.909 155.171 663.957 156.536C666.09 157.816 668.736 158.456 671.893 158.456C674.794 158.456 677.141 157.901 678.933 156.792C680.725 155.597 681.621 154.147 681.621 152.44C681.621 150.904 680.853 149.752 679.317 148.984C677.781 148.216 675.264 147.405 671.765 146.552C667.754 145.528 664.597 144.547 662.293 143.608C656.832 141.731 652.48 139.427 649.237 136.696C645.994 133.965 644.373 130.04 644.373 124.92C644.373 118.605 646.805 113.613 651.669 109.944C656.618 106.189 663.146 104.312 671.253 104.312C676.714 104.312 681.493 105.208 685.589 107C689.685 108.707 692.842 111.139 695.061 114.296C697.365 117.453 698.517 121.037 698.517 125.048C698.517 125.475 698.346 125.859 698.005 126.2C697.749 126.456 697.408 126.584 696.981 126.584H683.285C682.858 126.584 682.474 126.456 682.133 126.2C681.877 125.859 681.749 125.475 681.749 125.048C681.749 123.171 680.768 121.592 678.805 120.312C676.928 119.032 674.41 118.392 671.253 118.392C668.437 118.392 666.133 118.904 664.341 119.928C662.549 120.952 661.653 122.36 661.653 124.152C661.653 125.859 662.506 127.139 664.213 127.992C666.005 128.845 668.949 129.741 673.045 130.68C673.984 130.936 675.05 131.235 676.245 131.576C677.44 131.832 678.72 132.173 680.085 132.6C686.144 134.392 690.922 136.696 694.421 139.512C697.92 142.328 699.669 146.424 699.669 151.8C699.669 158.115 697.152 163.064 692.117 166.648C687.168 170.147 680.469 171.896 672.021 171.896ZM747.666 118.136C747.666 118.563 747.495 118.947 747.154 119.288C746.898 119.544 746.557 119.672 746.13 119.672H733.842C733.415 119.672 733.202 119.885 733.202 120.312V147.448C733.202 150.264 733.757 152.355 734.866 153.72C736.061 155.085 737.938 155.768 740.498 155.768H744.722C745.149 155.768 745.49 155.939 745.746 156.28C746.087 156.536 746.258 156.877 746.258 157.304V169.464C746.258 170.403 745.746 170.957 744.722 171.128C741.138 171.299 738.578 171.384 737.042 171.384C729.959 171.384 724.669 170.232 721.17 167.928C717.671 165.539 715.879 161.101 715.794 154.616V120.312C715.794 119.885 715.581 119.672 715.154 119.672H707.858C707.431 119.672 707.047 119.544 706.706 119.288C706.45 118.947 706.322 118.563 706.322 118.136V106.744C706.322 106.317 706.45 105.976 706.706 105.72C707.047 105.379 707.431 105.208 707.858 105.208H715.154C715.581 105.208 715.794 104.995 715.794 104.568V89.336C715.794 88.9093 715.922 88.568 716.178 88.312C716.519 87.9707 716.903 87.8 717.33 87.8H731.666C732.093 87.8 732.434 87.9707 732.69 88.312C733.031 88.568 733.202 88.9093 733.202 89.336V104.568C733.202 104.995 733.415 105.208 733.842 105.208H746.13C746.557 105.208 746.898 105.379 747.154 105.72C747.495 105.976 747.666 106.317 747.666 106.744V118.136Z" fill="#E0FF4F"/>
<path d="M152.585 130.674C152.597 142.689 148.464 154.341 140.885 163.664H107.942C115.677 161.822 122.519 157.322 127.273 150.95C132.028 144.577 134.392 136.736 133.954 128.797C133.516 120.859 130.302 113.326 124.875 107.515C119.448 101.705 112.153 97.985 104.262 97.0062V101.067C104.262 101.625 104.094 102.17 103.781 102.632C103.468 103.094 103.023 103.451 102.505 103.657C101.986 103.863 101.418 103.909 100.873 103.788C100.328 103.668 99.8318 103.387 99.4485 102.982L87.0239 89.8414C86.5317 89.3256 86.2571 88.64 86.2571 87.9271C86.2571 87.2141 86.5317 86.5285 87.0239 86.0127L99.4485 72.8726C99.8318 72.4672 100.328 72.1861 100.873 72.0657C101.418 71.9453 101.986 71.9911 102.505 72.1973C103.023 72.4035 103.468 72.7606 103.781 73.2222C104.094 73.6839 104.262 74.229 104.262 74.787V78.3368C117.416 79.4033 129.687 85.3778 138.639 95.0736C147.591 104.77 152.569 117.478 152.585 130.674Z" fill="#E0FF4F"/>
<path d="M66.1615 130.674C66.1728 138.299 68.7488 145.699 73.4752 151.683C78.2016 157.667 84.8034 161.887 92.2187 163.664H59.2755C53.3546 156.356 49.5073 147.591 48.1364 138.286C46.7655 128.981 47.9213 119.478 51.4829 110.773C55.0446 102.068 60.8809 94.4808 68.381 88.8054C75.8811 83.13 84.7691 79.5752 94.1144 78.5134L87.024 86.0127C86.5318 86.5285 86.2572 87.2141 86.2572 87.9271C86.2572 88.64 86.5318 89.3256 87.024 89.8414L94.068 97.285C86.2445 98.7053 79.167 102.825 74.0678 108.926C68.9687 115.027 66.1708 122.723 66.1615 130.674Z" fill="#E0FF4F"/>
<path d="M157.237 170.576L145.479 158.148C145.095 157.742 144.599 157.462 144.054 157.341C143.51 157.221 142.941 157.267 142.423 157.474C141.905 157.68 141.46 158.037 141.147 158.498C140.834 158.96 140.666 159.505 140.666 160.063V163.664H47.5757C46.0969 163.664 44.6787 164.251 43.6331 165.297C42.5874 166.343 42 167.761 42 169.24V175.745C42 177.223 42.5874 178.642 43.6331 179.687C44.6787 180.733 46.0969 181.32 47.5757 181.32H140.666V184.921C140.666 185.479 140.834 186.024 141.147 186.486C141.46 186.947 141.905 187.304 142.423 187.511C142.941 187.717 143.51 187.763 144.054 187.643C144.599 187.523 145.095 187.242 145.479 186.837L157.237 174.408C157.727 173.891 158 173.205 158 172.492C158 171.779 157.727 171.094 157.237 170.576Z" fill="#E0FF4F"/>
<path d="M146.405 155.335C145.53 154.778 144.513 154.482 143.475 154.483C141.994 154.482 140.573 155.068 139.524 156.113C138.475 157.159 137.882 158.577 137.877 160.058V160.876H115.476C113.085 162.102 110.556 163.038 107.942 163.664H140.885C142.985 161.069 144.833 158.28 146.405 155.335Z" fill="#A6BD3D"/>
<path d="M59.2754 163.664H92.2186C89.6052 163.038 87.076 162.102 84.6849 160.876H57.178C57.8499 161.827 58.5413 162.761 59.2754 163.664Z" fill="#A6BD3D"/>
<path d="M87.0239 89.8414C86.5317 89.3256 86.2571 88.64 86.2571 87.9271C86.2571 87.2141 86.5317 86.5285 87.0239 86.0127L94.1144 78.5134C92.5876 78.6862 91.0821 78.9316 89.5971 79.2336L85.0092 84.0854C84.0188 85.116 83.4647 86.4895 83.4628 87.919C83.4609 89.3484 84.0113 90.7233 84.999 91.7566L90.9158 98.0145C91.9482 97.7245 92.9983 97.4773 94.0679 97.285L87.0239 89.8414Z" fill="#A6BD3D"/>
</svg>
